<?xml version="1.0" standalone="no"?>
<!DOCTYPE svg PUBLIC "-//W3C//DTD SVG 20010904//EN"
 "http://www.w3.org/TR/2001/REC-SVG-20010904/DTD/svg10.dtd">
<svg version="1.0" xmlns="http://www.w3.org/2000/svg"
 width="103.000000pt" height="103.000000pt" viewBox="0 0 103.000000 103.000000"
 preserveAspectRatio="xMidYMid meet">
<metadata>
Created by potrace 1.14, written by Peter Selinger 2001-2017
</metadata>
<g transform="translate(0.000000,103.000000) scale(0.100000,-0.100000)"
fill="#000000" stroke="none">
<path d="M401 990 c-115 -42 -175 -123 -175 -240 0 -123 50 -175 271 -284 122
-60 157 -82 173 -108 79 -130 -89 -241 -250 -166 -51 23 -130 90 -130 110 0
17 -29 6 -73 -28 -26 -20 -47 -40 -47 -43 0 -17 104 -122 144 -145 143 -84
357 -68 457 35 65 66 90 173 61 262 -25 78 -82 126 -256 211 -84 42 -161 84
-170 95 -26 29 -32 95 -12 126 24 36 74 59 131 58 65 -1 115 -24 162 -72 l38
-40 53 41 52 41 -23 31 c-89 116 -265 166 -406 116z"/>
</g>
</svg>
